<svg width="800" height="800" viewBox="0 0 800 800" fill="none" xmlns="http://www.w3.org/2000/svg">
<g clip-path="url(#clip0_12_180)">
<path d="M535.091 311.291L564.636 340.836V561.364H446.455V264.314L474.966 251.136L476 252.2V531.818H535.091V311.291ZM476 29.5455H535.091V102.345L564.636 131.891V0H446.455V101.607L476 87.9568V29.5455ZM269.182 325H387.364V561.364H269.182V325ZM298.727 531.818H357.818V354.545H298.727V531.818ZM653.273 147.727H712.364V279.618L728.2 295.455H741.909V118.182H623.727V190.982L653.273 220.527V147.727ZM712.364 531.818H653.273V429.473L623.727 399.927V561.364H741.909V443.182H712.364V531.818ZM180.545 0H151V650H801V620.455H180.545V0ZM703.707 354.545L493.934 144.773L295.477 236.364H269.182V265.909H298.727L487.611 180.227L691.475 384.091H741.909V354.545H703.707Z" fill="black"/>
<path d="M14.6123 574.493C14.6123 630.059 36.6858 683.349 75.9769 722.64C115.268 761.931 168.558 784.005 224.124 784.005C279.69 784.005 332.98 761.931 372.271 722.64C411.562 683.349 433.636 630.059 433.636 574.493C433.636 518.927 411.562 465.637 372.271 426.346C332.98 387.055 279.69 364.981 224.124 364.981C168.558 364.981 115.268 387.055 75.9769 426.346C36.6858 465.637 14.6123 518.927 14.6123 574.493Z" fill="#299059"/>
<path d="M53.8701 574.493C53.8701 596.851 58.2738 618.99 66.8298 639.646C75.3858 660.302 87.9265 679.07 103.736 694.879C119.545 710.689 138.314 723.23 158.97 731.786C179.626 740.342 201.765 744.745 224.123 744.745C246.48 744.745 268.619 740.342 289.275 731.786C309.931 723.23 328.7 710.689 344.509 694.879C360.319 679.07 372.859 660.302 381.415 639.646C389.971 618.99 394.375 596.851 394.375 574.493C394.375 529.339 376.438 486.035 344.509 454.106C312.581 422.178 269.276 404.24 224.123 404.24C178.969 404.24 135.664 422.178 103.736 454.106C71.8074 486.035 53.8701 529.339 53.8701 574.493Z" fill="#98C898"/>
<path d="M224.998 760.741C122.58 760.741 39.2588 677.42 39.2588 575.002C39.2588 472.584 122.58 389.258 224.998 389.258C327.416 389.258 410.743 472.585 410.743 575.002C410.743 677.42 327.416 760.741 224.998 760.741ZM224.998 407.393C132.58 407.393 57.3938 482.584 57.3938 575.002C57.3938 667.42 132.58 742.606 224.998 742.606C317.417 742.606 392.608 667.421 392.608 575.002C392.608 482.583 317.416 407.393 224.998 407.393Z" fill="#300604"/>
<path d="M224.997 800C100.93 800 0 699.069 0 575.003C0 450.937 100.931 350 224.997 350C349.063 350 450 450.937 450 575.003C450 699.069 349.063 800 224.997 800ZM224.997 368.134C110.931 368.134 18.135 460.937 18.135 575.002C18.135 689.068 110.931 781.864 224.997 781.864C339.063 781.864 431.865 689.068 431.865 575.002C431.865 460.937 339.063 368.134 224.997 368.134Z" fill="#300604"/>
<path d="M215.931 420.929H234.066V443.534H215.931V420.929ZM155.804 437.051L167.108 456.627L151.405 465.695L140.101 446.119L155.804 437.051ZM96.1185 490.123L115.695 501.428L106.627 517.132L87.0501 505.826L96.1185 490.123ZM70.9307 565.935H93.5354V584.07H70.9307V565.935ZM106.621 632.9L115.689 648.603L96.1127 659.908L87.0443 644.204L106.621 632.9ZM151.407 684.335L167.11 693.403L155.804 712.98L140.101 703.912L151.407 684.335ZM215.931 706.465H234.066V729.07H215.931V706.465ZM298.572 684.333L309.877 703.91L294.174 712.978L282.869 693.402L298.572 684.333ZM343.409 632.894L362.985 644.199L353.917 659.902L334.341 648.597L343.409 632.894ZM356.468 565.935H379.073V584.07H356.468V565.935ZM353.907 490.131L362.975 505.834L343.399 517.138L334.332 501.435L353.907 490.131ZM294.185 437.06L309.888 446.129L298.583 465.704L282.88 456.636L294.185 437.06Z" fill="#300604"/>
<path d="M198.763 636.351L183.214 627.023L215.931 572.493V478.635H234.066V577.511L198.763 636.351Z" fill="#300604"/>
</g>
<defs>
<clipPath id="clip0_12_180">
<rect width="800" height="800" fill="white"/>
</clipPath>
</defs>
</svg>
