<svg width="800" height="800" viewBox="0 0 800 800" fill="none" xmlns="http://www.w3.org/2000/svg">
<g clip-path="url(#clip0_20_85)">
<path d="M245.423 732.928C263.633 713.459 295.673 682.358 313.344 663.468C292.954 675.895 254.326 710.737 234.597 723.254C207.194 703.015 181.437 680.637 157.567 656.331C203.532 646.158 246.804 626.315 284.505 598.122C240.141 619.963 192.25 633.752 143.064 638.849C125.348 614.473 109.291 588.935 95 562.405C195.318 589.681 304.4 549.501 371.739 479.369C389.152 489.432 411.504 501.671 429.751 510.892C435.135 513.607 439.918 517.377 443.816 521.978C447.713 526.579 450.645 531.917 452.437 537.674C476.933 603.117 462.648 660.803 418.328 712.652C399.784 734.347 372.128 767.528 347.701 782.233C311.764 769.935 277.427 753.382 245.423 732.928Z" fill="#38B102"/>
<path d="M466.148 440.285L429.795 419.246C439.389 402.504 448.68 386.188 458.066 369.929C525.907 252.415 593.759 134.907 661.623 17.4054C663.011 15.0027 664.356 12.5677 665.878 10.252C668.714 5.49139 673.317 2.04477 678.684 0.663205C684.05 -0.718356 689.745 0.0771223 694.528 2.8763C699.311 5.67548 702.793 10.2515 704.217 15.6071C705.64 20.9627 704.889 26.6639 702.127 31.4682C690.766 51.8218 678.939 71.9089 667.286 92.0956C607.774 195.193 548.256 298.288 488.731 401.382C481.402 414.083 474.01 426.75 466.148 440.285Z" fill="#A57939"/>
<path d="M448.754 511.787L376.939 470.304C384.441 457.424 391.269 444.776 399.039 432.729C399.924 431.199 401.109 429.863 402.524 428.804C403.939 427.745 405.554 426.984 407.272 426.567C408.99 426.15 410.774 426.085 412.517 426.378C414.26 426.67 415.926 427.313 417.414 428.267C433.429 437.098 449.267 446.247 464.928 455.714C466.493 456.538 467.876 457.668 468.995 459.039C470.113 460.409 470.944 461.99 471.438 463.689C471.931 465.387 472.077 467.168 471.868 468.924C471.658 470.68 471.096 472.376 470.216 473.91C463.67 486.66 456.132 498.907 448.754 511.787Z" fill="#CCFF33"/>
<path d="M245.423 732.928C263.633 713.459 295.673 682.358 313.344 663.468C292.954 675.895 254.326 710.737 234.597 723.254C207.194 703.015 181.437 680.637 157.567 656.331C203.532 646.158 246.804 626.315 284.505 598.122C240.141 619.963 192.25 633.752 143.064 638.849C125.348 614.473 109.291 588.935 95 562.405C195.318 589.681 304.4 549.501 371.739 479.369C389.152 489.432 411.504 501.671 429.751 510.892C435.135 513.607 439.918 517.377 443.816 521.978C447.713 526.579 450.645 531.917 452.437 537.674C476.933 603.117 462.648 660.803 418.328 712.652C399.784 734.347 372.128 767.528 347.701 782.233C311.764 769.935 277.427 753.382 245.423 732.928Z" stroke="black" stroke-width="32" stroke-linecap="round" stroke-linejoin="round"/>
<path d="M466.148 440.285L429.795 419.246C439.389 402.504 448.68 386.188 458.066 369.929C525.907 252.415 593.759 134.907 661.623 17.4054C663.011 15.0027 664.356 12.5677 665.878 10.252C668.714 5.49139 673.317 2.04477 678.684 0.663205C684.05 -0.718356 689.745 0.0771223 694.528 2.8763C699.311 5.67548 702.793 10.2515 704.217 15.6071C705.64 20.9627 704.889 26.6639 702.127 31.4682C690.766 51.8218 678.939 71.9089 667.286 92.0956C607.774 195.193 548.256 298.288 488.731 401.382C481.402 414.083 474.01 426.75 466.148 440.285Z" stroke="black" stroke-width="32" stroke-miterlimit="10"/>
<path d="M448.754 511.787L376.939 470.304C384.441 457.424 391.269 444.776 399.039 432.729C399.924 431.199 401.109 429.863 402.524 428.804C403.939 427.745 405.554 426.984 407.272 426.567C408.99 426.15 410.774 426.085 412.517 426.378C414.26 426.67 415.926 427.313 417.414 428.267C433.429 437.098 449.267 446.247 464.928 455.714C466.493 456.538 467.876 457.668 468.995 459.039C470.113 460.409 470.944 461.99 471.438 463.689C471.931 465.387 472.077 467.168 471.868 468.924C471.658 470.68 471.096 472.376 470.216 473.91C463.67 486.66 456.132 498.907 448.754 511.787Z" stroke="black" stroke-width="32" stroke-miterlimit="10"/>
<path d="M419.122 800C430.029 800 438.872 791.157 438.872 780.25C438.872 769.342 430.029 760.499 419.122 760.499C408.214 760.499 399.371 769.342 399.371 780.25C399.371 791.157 408.214 800 419.122 800Z" fill="black"/>
<path d="M464.594 739.869C473.771 739.869 481.21 732.43 481.21 723.254C481.21 714.077 473.771 706.638 464.594 706.638C455.418 706.638 447.979 714.077 447.979 723.254C447.979 732.43 455.418 739.869 464.594 739.869Z" fill="black"/>
<path d="M464.594 778.524C471.885 778.524 477.797 772.613 477.797 765.321C477.797 758.03 471.885 752.118 464.594 752.118C457.302 752.118 451.391 758.03 451.391 765.321C451.391 772.613 457.302 778.524 464.594 778.524Z" fill="black"/>
</g>
<defs>
<clipPath id="clip0_20_85">
<rect width="800" height="800" fill="white"/>
</clipPath>
</defs>
</svg>
