<svg width="800" height="800" viewBox="0 0 800 800" fill="none" xmlns="http://www.w3.org/2000/svg">
    <path d="M549.426 664.367H158.62C145.924 664.367 135.632 654.076 135.632 641.379V89.6549C135.632 76.9583 145.924 66.6667 158.62 66.6667H457.472L572.414 181.609V641.378C572.414 654.074 562.123 664.367 549.426 664.367Z"
          fill="#F1F4FB"/>
    <path d="M377.012 342.527C345.273 342.527 319.541 368.259 319.541 399.999V664.367H549.426C562.123 664.367 572.415 654.076 572.415 641.379V342.527H377.012Z"
          fill="#E4EAF6"/>
    <path d="M457.472 66.6667V147.126C457.472 166.171 472.91 181.609 491.955 181.609H572.414L457.472 66.6667Z"
          fill="#D5DCED"/>
    <path d="M239.081 185.061V149.126C246.14 151.704 250.576 156.384 250.576 160.775C250.576 167.128 255.716 172.27 262.071 172.27C268.425 172.27 273.565 167.129 273.565 160.775C273.565 143.427 259.093 129.37 239.082 125.381V124.137C239.082 117.784 233.942 112.642 227.588 112.642C221.235 112.642 216.093 117.783 216.093 124.137V125.381C196.082 129.37 181.61 143.427 181.61 160.775C181.61 185.03 200.674 195.246 216.093 201.143V237.078C209.034 234.5 204.598 229.82 204.598 225.43C204.598 219.077 199.457 213.935 193.103 213.935C186.749 213.935 181.608 219.076 181.608 225.43C181.608 242.777 196.081 256.835 216.091 260.823V262.068C216.091 268.421 221.232 273.562 227.586 273.562C233.939 273.562 239.081 268.422 239.081 262.068V260.823C259.091 256.835 273.564 242.777 273.564 225.43C273.563 201.174 254.5 190.957 239.081 185.061ZM204.598 160.775C204.598 156.384 209.033 151.704 216.093 149.126V175.947C206.698 171.087 204.598 166.767 204.598 160.775ZM239.081 237.077V210.258C248.474 215.116 250.576 219.436 250.576 225.43C250.575 229.82 246.14 234.499 239.081 237.077Z"
          fill="#9BF57D"/>
    <path d="M400 158.62H308.046C301.693 158.62 296.551 153.479 296.551 147.125C296.551 140.771 301.691 135.63 308.046 135.63H400C406.353 135.63 411.495 140.771 411.495 147.125C411.495 153.479 406.353 158.62 400 158.62Z"
          fill="#AFB9D2"/>
    <path d="M319.54 250.574H308.046C301.693 250.574 296.551 245.434 296.551 239.079C296.551 232.725 301.691 227.585 308.046 227.585H319.54C325.893 227.585 331.035 232.725 331.035 239.079C331.035 245.434 325.893 250.574 319.54 250.574Z"
          fill="#C7CFE2"/>
    <path d="M514.943 331.034H193.103C186.75 331.034 181.608 325.893 181.608 319.539C181.608 313.185 186.749 308.044 193.103 308.044H514.943C521.296 308.044 526.438 313.185 526.438 319.539C526.438 325.893 521.297 331.034 514.943 331.034Z"
          fill="#9BF57D"/>
    <path d="M296.552 399.999H262.069C255.716 399.999 250.574 394.858 250.574 388.504C250.574 382.15 255.715 377.009 262.069 377.009H296.552C302.905 377.009 308.047 382.15 308.047 388.504C308.047 394.858 302.905 399.999 296.552 399.999Z"
          fill="#D5DCED"/>
    <path d="M216.091 399.999H193.103C186.75 399.999 181.608 394.858 181.608 388.504C181.608 382.15 186.749 377.009 193.103 377.009H216.091C222.444 377.009 227.586 382.15 227.586 388.504C227.586 394.858 222.446 399.999 216.091 399.999Z"
          fill="#C7CFE2"/>
    <path d="M296.552 445.977H262.069C255.716 445.977 250.574 440.836 250.574 434.482C250.574 428.128 255.715 422.987 262.069 422.987H296.552C302.905 422.987 308.047 428.128 308.047 434.482C308.047 440.836 302.905 445.977 296.552 445.977Z"
          fill="#D5DCED"/>
    <path d="M216.091 445.977H193.103C186.75 445.977 181.608 440.836 181.608 434.482C181.608 428.128 186.749 422.987 193.103 422.987H216.091C222.444 422.987 227.586 428.128 227.586 434.482C227.586 440.836 222.446 445.977 216.091 445.977Z"
          fill="#C7CFE2"/>
    <path d="M296.552 491.953H262.069C255.716 491.953 250.574 486.812 250.574 480.458C250.574 474.104 255.715 468.964 262.069 468.964H296.552C302.905 468.964 308.047 474.104 308.047 480.458C308.047 486.812 302.905 491.953 296.552 491.953Z"
          fill="#D5DCED"/>
    <path d="M216.091 491.953H193.103C186.75 491.953 181.608 486.812 181.608 480.458C181.608 474.104 186.749 468.964 193.103 468.964H216.091C222.444 468.964 227.586 474.104 227.586 480.458C227.586 486.812 222.446 491.953 216.091 491.953Z"
          fill="#C7CFE2"/>
    <path d="M296.552 537.931H262.069C255.716 537.931 250.574 532.79 250.574 526.436C250.574 520.082 255.715 514.941 262.069 514.941H296.552C302.905 514.941 308.047 520.082 308.047 526.436C308.047 532.79 302.905 537.931 296.552 537.931Z"
          fill="#D5DCED"/>
    <path d="M216.091 537.931H193.103C186.75 537.931 181.608 532.79 181.608 526.436C181.608 520.082 186.749 514.941 193.103 514.941H216.091C222.444 514.941 227.586 520.082 227.586 526.436C227.586 532.79 222.446 537.931 216.091 537.931Z"
          fill="#C7CFE2"/>
    <path d="M296.552 583.908H262.069C255.716 583.908 250.574 578.767 250.574 572.413C250.574 566.059 255.715 560.918 262.069 560.918H296.552C302.905 560.918 308.047 566.059 308.047 572.413C308.047 578.767 302.905 583.908 296.552 583.908Z"
          fill="#D5DCED"/>
    <path d="M216.091 583.908H193.103C186.75 583.908 181.608 578.767 181.608 572.413C181.608 566.059 186.749 560.918 193.103 560.918H216.091C222.444 560.918 227.586 566.059 227.586 572.413C227.586 578.767 222.446 583.908 216.091 583.908Z"
          fill="#C7CFE2"/>
    <path d="M434.484 250.574H422.989C416.636 250.574 411.494 245.434 411.494 239.079C411.494 232.725 416.635 227.585 422.989 227.585H434.484C440.837 227.585 445.979 232.725 445.979 239.079C445.979 245.434 440.837 250.574 434.484 250.574Z"
          fill="#C7CFE2"/>
    <path d="M491.954 250.574H480.46C474.107 250.574 468.965 245.434 468.965 239.079C468.965 232.725 474.105 227.585 480.46 227.585H491.954C498.307 227.585 503.449 232.725 503.449 239.079C503.449 245.434 498.307 250.574 491.954 250.574Z"
          fill="#C7CFE2"/>
    <path d="M377.012 250.574H365.517C359.164 250.574 354.022 245.434 354.022 239.079C354.022 232.725 359.163 227.585 365.517 227.585H377.012C383.365 227.585 388.507 232.725 388.507 239.079C388.507 245.434 383.365 250.574 377.012 250.574Z"
          fill="#C7CFE2"/>
    <path d="M422.988 204.596H308.046C301.693 204.596 296.551 199.456 296.551 193.102C296.551 186.747 301.691 181.607 308.046 181.607H422.988C429.341 181.607 434.483 186.747 434.483 193.102C434.483 199.456 429.342 204.596 422.988 204.596Z"
          fill="#AFB9D2"/>
    <path d="M377.011 733.333H629.885C648.929 733.333 664.368 717.895 664.368 698.85V399.999C664.368 380.954 648.929 365.516 629.885 365.516H377.011C357.967 365.516 342.528 380.954 342.528 399.999V698.85C342.528 717.893 357.967 733.333 377.011 733.333Z"
          fill="#AFB9D2"/>
    <path d="M606.898 480.46H400.001C393.653 480.46 388.506 475.313 388.506 468.965V422.988C388.506 416.641 393.653 411.493 400.001 411.493H606.898C613.245 411.493 618.393 416.641 618.393 422.988V468.965C618.391 475.313 613.247 480.46 606.898 480.46Z"
          fill="#00C3FF"/>
    <path d="M422.989 583.908H400.001C393.653 583.908 388.506 578.76 388.506 572.413V549.424C388.506 543.077 393.653 537.93 400.001 537.93H422.989C429.337 537.93 434.484 543.077 434.484 549.424V572.413C434.484 578.762 429.338 583.908 422.989 583.908Z"
          fill="#65687A"/>
    <path d="M606.897 583.908H583.909C577.561 583.908 572.414 578.76 572.414 572.413V549.424C572.414 543.077 577.561 537.93 583.909 537.93H606.897C613.245 537.93 618.392 543.077 618.392 549.424V572.413C618.391 578.762 613.246 583.908 606.897 583.908Z"
          fill="#7DFAA0"/>
    <path d="M514.943 583.908H491.955C485.607 583.908 480.46 578.76 480.46 572.413V549.424C480.46 543.077 485.607 537.93 491.955 537.93H514.943C521.291 537.93 526.438 543.077 526.438 549.424V572.413C526.438 578.762 521.292 583.908 514.943 583.908Z"
          fill="#65687A"/>
    <path d="M422.989 675.862H400.001C393.653 675.862 388.506 670.715 388.506 664.367V641.379C388.506 635.031 393.653 629.884 400.001 629.884H422.989C429.337 629.884 434.484 635.031 434.484 641.379V664.367C434.484 670.715 429.338 675.862 422.989 675.862Z"
          fill="#65687A"/>
    <path d="M606.897 675.862H583.909C577.561 675.862 572.414 670.715 572.414 664.367V641.379C572.414 635.031 577.561 629.884 583.909 629.884H606.897C613.245 629.884 618.392 635.031 618.392 641.379V664.367C618.391 670.715 613.246 675.862 606.897 675.862Z"
          fill="#FFDC64"/>
    <path d="M514.943 675.862H491.955C485.607 675.862 480.46 670.715 480.46 664.367V641.379C480.46 635.031 485.607 629.884 491.955 629.884H514.943C521.291 629.884 526.438 635.031 526.438 641.379V664.367C526.438 670.715 521.292 675.862 514.943 675.862Z"
          fill="#65687A"/>
    <path d="M606.898 411.493H400.001C393.653 411.493 388.506 416.641 388.506 422.988V445.977C388.506 439.629 393.653 434.482 400.001 434.482H606.898C613.245 434.482 618.393 439.629 618.393 445.977V422.988C618.391 416.639 613.247 411.493 606.898 411.493Z"
          fill="#00AAF0"/>
</svg>
