<svg width="800" height="800" viewBox="0 0 800 800" fill="none" xmlns="http://www.w3.org/2000/svg">
<path d="M203.442 10C219.726 10 232.926 22.0884 232.926 37.0001V91.4644C259.079 90.9999 288.393 90.9999 321.377 90.9999H478.624C511.606 90.9999 540.923 90.9999 567.076 91.4644V37.0001C567.076 22.0884 580.274 10 596.556 10C612.842 10 626.04 22.0884 626.04 37.0001V93.8531C682.625 98.0023 719.769 108.186 747.061 133.177C774.349 158.168 785.468 192.184 790 244V283H10V244C14.531 192.184 25.6507 158.168 52.9406 133.177C80.2308 108.186 117.376 98.0023 173.958 93.8531V37.0001C173.958 22.0884 187.159 10 203.442 10Z" fill="#008000" stroke="black" stroke-width="0.00024"/>
<path opacity="0.5" d="M790 478V400C790 367.279 789.505 308.946 789.002 283H10.2288C9.72568 308.946 10.2202 367.279 10.2202 400V478C10.2202 625.077 10.2202 698.619 55.8985 744.308C101.577 790 175.095 790 322.133 790H478.09C625.124 790 698.643 790 744.323 744.308C790 698.619 790 625.077 790 478Z" fill="#008000" fill-opacity="0.75" stroke="black" stroke-width="0.00024"/>
<path d="M634 575.5C634 607.808 607.808 634 575.5 634C543.192 634 517 607.808 517 575.5C517 543.192 543.192 517 575.5 517C607.808 517 634 543.192 634 575.5Z" fill="#008000" stroke="black" stroke-width="0.00024"/>
</svg>
