<svg width="800" height="800" viewBox="0 0 800 800" fill="none" xmlns="http://www.w3.org/2000/svg">
    <g clip-path="url(#clip0_10_116)">
        <path d="M400 800C620.914 800 800 620.914 800 400C800 179.086 620.914 0 400 0C179.086 0 0 179.086 0 400C0 620.914 179.086 800 400 800Z"
              fill="#98C898"/>
        <g opacity="0.2">
            <path d="M212.5 625C157.5 625 135 586.25 162.5 538.75L350 212.5C377.5 165 422.5 165 450 212.5L637.5 538.75C665 586.25 642.5 625 587.5 625H212.5Z"
                  fill="#231F20"/>
        </g>
        <path d="M212.5 600C157.5 600 135 561.25 162.5 513.75L350 187.5C377.5 140 422.5 140 450 187.5L637.5 513.75C665 561.25 642.5 600 587.5 600H212.5Z"
              fill="#F5CF87"/>
        <path d="M425 400C425 413.75 413.75 425 400 425C386.25 425 375 413.75 375 400V300C375 286.25 386.25 275 400 275C413.75 275 425 286.25 425 300V400Z"
              fill="#4F5D73"/>
        <path d="M425 500C425 513.75 413.75 525 400 525C386.25 525 375 513.75 375 500C375 486.25 386.25 475 400 475C413.75 475 425 486.25 425 500Z"
              fill="#4F5D73"/>
    </g>
    <defs>
        <clipPath id="clip0_10_116">
            <rect width="800" height="800" fill="white"/>
        </clipPath>
    </defs>
</svg>
