<svg viewBox="0 0 800 800" fill="none" xmlns="http://www.w3.org/2000/svg">
    <path
            d="M556.899 76.4333C553.809 73.3319 550.136 70.8723 546.092 69.1961C542.047 67.52 537.711 66.6603 533.333 66.6667H266.666C262.288 66.6603 257.952 67.52 253.907 69.1961C249.863 70.8723 246.19 73.3319 243.099 76.4333L76.4327 243.1C73.3313 246.19 70.8717 249.863 69.1955 253.908C67.5194 257.952 66.6597 262.289 66.6661 266.667V533.333C66.6661 542.2 70.1661 550.667 76.4327 556.9L243.099 723.567C246.19 726.668 249.863 729.128 253.907 730.804C257.952 732.48 262.288 733.34 266.666 733.333H533.333C542.199 733.333 550.666 729.833 556.899 723.567L723.566 556.9C726.668 553.81 729.127 550.137 730.803 546.092C732.48 542.048 733.339 537.711 733.333 533.333V266.667C733.339 262.289 732.48 257.952 730.803 253.908C729.127 249.863 726.668 246.19 723.566 243.1L556.899 76.4333ZM433.333 566.667H366.666V500H433.333V566.667ZM433.333 433.333H366.666V233.333H433.333V433.333Z"
            fill="#FF0000"/>
</svg>