<svg width="800" height="800" viewBox="0 0 800 800" fill="none" xmlns="http://www.w3.org/2000/svg">
<g clip-path="url(#clip0_12_168)">
<path d="M400 30C195.655 30 30 195.655 30 400C30 604.345 195.655 770 400 770C604.345 770 770 604.345 770 400C770 195.655 604.345 30 400 30ZM459.075 320.95L406.628 608.833C405.573 614.177 407.215 619.487 411.095 623.525C414.975 627.575 420.652 629.898 426.668 629.898C434.038 629.898 440.002 635.138 440.002 641.615C440.002 648.092 434.038 653.332 426.668 653.332H366.915C351.277 653.332 336.485 647.335 326.328 636.877C316.185 626.407 311.783 612.618 314.258 599.048L366.707 311.165C367.762 305.822 366.12 300.512 362.24 296.473C358.36 292.423 352.683 290.1 346.667 290.1C339.297 290.1 333.333 284.86 333.333 278.383C333.333 271.907 339.297 266.667 346.667 266.667H406.42C422.058 266.667 436.85 272.663 447.007 283.122C457.148 293.592 461.55 307.38 459.075 320.95ZM433.333 226.667C407.603 226.667 386.667 205.728 386.667 180C386.667 154.272 407.605 133.333 433.333 133.333C459.062 133.333 480 154.272 480 180C480 205.728 459.063 226.667 433.333 226.667Z" fill="#98C898"/>
<path d="M400 800C510.457 800 610.457 755.228 682.843 682.843L437.788 437.788L406.628 608.833C405.573 614.177 407.215 619.487 411.095 623.525C414.975 627.575 420.652 629.898 426.668 629.898C434.038 629.898 440.002 635.138 440.002 641.615C440.002 648.092 434.038 653.332 426.668 653.332H366.915C351.277 653.332 336.485 647.335 326.328 636.877C316.185 626.407 311.783 612.618 314.258 599.047L358.147 358.143L117.157 117.157C44.7717 189.543 0 289.543 0 400C0 620.913 179.087 800 400 800Z" fill="#299059"/>
<path d="M400 800C179.44 800 0 620.56 0 400C0 179.44 179.44 0 400 0C620.56 0 800 179.44 800 400C800 620.56 620.56 800 400 800ZM400 53.3333C208.842 53.3333 53.3333 208.842 53.3333 400C53.3333 591.158 208.842 746.667 400 746.667C591.158 746.667 746.667 591.158 746.667 400C746.667 208.842 591.158 53.3333 400 53.3333Z" fill="#D7DBE0"/>
<path d="M400 800C510.28 800 610.28 755.14 682.71 682.71L645.018 645.018C582.247 707.79 495.58 746.667 400 746.667C208.842 746.667 53.3333 591.158 53.3333 400C53.3333 304.42 92.21 217.753 154.982 154.982L117.29 117.29C44.86 189.72 0 289.72 0 400C0 620.56 179.44 800 400 800Z" fill="#B8BAC0"/>
</g>
<defs>
<clipPath id="clip0_12_168">
<rect width="800" height="800" fill="white"/>
</clipPath>
</defs>
</svg>
