<svg width="800" height="800" viewBox="0 0 800 800" fill="none" xmlns="http://www.w3.org/2000/svg">
<g clip-path="url(#clip0_41_12)">
<path d="M418.182 0C398.1 0 381.818 16.2813 381.818 36.3641V181.819C381.818 201.902 398.1 218.183 418.182 218.183C438.265 218.183 454.546 201.902 454.546 181.819V36.3641C454.546 16.2813 438.265 0 418.182 0Z" fill="#006400"/>
<path d="M418.184 581.819C398.102 581.819 381.82 598.1 381.82 618.183V763.638C381.82 783.72 398.102 800.002 418.184 800.002C438.267 800.002 454.548 783.72 454.548 763.638V618.183C454.548 598.1 438.267 581.819 418.184 581.819Z" fill="#4AD66D"/>
<path d="M289.617 220.012L186.764 117.156C172.567 102.955 149.542 102.955 135.339 117.156C121.137 131.358 121.137 154.381 135.339 168.581L238.192 271.438C245.292 278.538 254.6 282.089 263.903 282.089C273.207 282.089 282.517 278.538 289.614 271.438C303.818 257.236 303.818 234.214 289.617 220.012Z" fill="#027000"/>
<path d="M745.456 363.636H672.729C652.646 363.636 636.365 379.917 636.365 400C636.365 420.083 652.646 436.364 672.729 436.364H745.456C765.539 436.364 781.82 420.083 781.82 400C781.82 379.917 765.539 363.636 745.456 363.636Z" fill="#6CDE8B"/>
<path d="M598.173 528.567C583.974 514.366 560.949 514.369 546.748 528.567C532.546 542.769 532.549 565.791 546.748 579.992L649.604 682.844C656.704 689.944 666.012 693.494 675.318 693.494C684.624 693.494 693.932 689.942 701.029 682.844C715.23 668.642 715.23 645.619 701.029 631.419L598.173 528.567Z" fill="#6CDE8B"/>
<path d="M236.364 400C236.364 379.917 220.083 363.636 200 363.636H54.5457C34.4629 363.636 18.1816 379.917 18.1816 400C18.1816 420.083 34.4629 436.364 54.5457 436.364H200C220.083 436.364 236.364 420.083 236.364 400Z" fill="#008000"/>
<path d="M289.617 528.567C275.419 514.366 252.392 514.366 238.192 528.567L135.341 631.419C121.139 645.617 121.139 668.644 135.341 682.844C142.441 689.944 151.748 693.494 161.055 693.494C170.361 693.494 179.669 689.945 186.766 682.844L289.617 579.992C303.819 565.794 303.819 542.769 289.617 528.567Z" fill="#25A344"/>
</g>
<defs>
<clipPath id="clip0_41_12">
<rect width="800" height="800" fill="white"/>
</clipPath>
</defs>
</svg>
