<svg width="800" height="800" viewBox="0 0 800 800" fill="none" xmlns="http://www.w3.org/2000/svg">
    <g clip-path="url(#clip0_14_237)">
        <path fill-rule="evenodd" clip-rule="evenodd"
              d="M535.261 9.37274C529.26 3.37148 521.121 0 512.634 0H97.3032C79.6301 0 65.3032 14.3269 65.3032 32V428.592C65.3032 446.265 79.6301 460.592 97.3032 460.592H117.046C134.719 460.592 149.046 446.265 149.046 428.592V376.848V332.883V115.744C149.046 98.0709 163.373 83.7441 181.046 83.7441H477.881C486.368 83.7441 494.507 87.1155 500.508 93.1168L642.131 234.741C648.132 240.743 651.503 248.882 651.503 257.369V332.883V376.848V428.592C651.503 446.265 665.83 460.592 683.503 460.592H703.246C720.919 460.592 735.246 446.265 735.246 428.592V222.615C735.246 214.128 731.875 205.989 725.873 199.988L535.261 9.37274ZM94 795.569C76.3269 795.569 62 781.242 62 763.569V572.662C62 557.048 74.6581 544.39 90.2727 544.39V544.39C105.887 544.39 118.545 557.048 118.545 572.662V719.253C118.545 736.926 132.872 751.253 150.545 751.253H204.338C216.576 751.253 226.496 761.174 226.496 773.411V773.411C226.496 785.648 216.575 795.569 204.338 795.569H94ZM362.63 539.958C402.1 539.958 432.352 552.485 453.387 577.538C473.594 601.527 483.698 632.37 483.698 670.068C483.698 711.31 471.762 744.104 447.892 768.448C427.33 789.483 398.909 800 362.63 800C323.161 800 292.909 787.474 271.874 762.421C251.666 738.431 241.563 707.115 241.563 668.472C241.563 628.057 253.498 595.677 277.369 571.333C298.049 550.417 326.47 539.958 362.63 539.958ZM362.453 584.273C342.009 584.273 326.233 592.782 315.125 609.799C305.08 625.162 300.058 644.897 300.058 669.004C300.058 696.893 306.026 718.519 317.961 733.882C329.188 748.417 344.077 755.685 362.63 755.685C382.956 755.685 398.791 747.117 410.135 729.982C420.18 714.856 425.202 694.884 425.202 670.068C425.202 642.77 419.235 621.439 407.299 606.077C396.073 591.541 381.124 584.273 362.453 584.273ZM705 655.001C722.673 655.001 737 669.327 737 687.001V760.156C737 773.901 728.26 786.239 715.116 790.256C711.63 791.322 708.762 792.147 706.512 792.732C688.195 797.577 668.519 800 647.484 800C606.124 800 574.631 789.601 553.006 768.802C529.017 745.876 517.022 713.91 517.022 672.904C517.022 625.753 531.912 590.182 561.691 566.193C583.317 548.703 612.506 539.958 649.257 539.958C672.27 539.958 694.112 543.03 714.782 549.174C727.242 552.878 732.741 566.882 727.528 578.79V578.79C722.172 591.026 707.741 596.018 695.199 591.421C691.316 589.998 687.642 588.827 684.177 587.907C674.605 585.367 664.088 584.096 652.625 584.096C625.209 584.096 605.002 593.018 592.003 610.863C581.013 625.989 575.518 645.901 575.518 670.6C575.518 700.261 583.79 722.596 600.334 737.604C613.569 749.658 629.995 755.685 649.612 755.685C653.913 755.685 658.131 755.41 662.266 754.861C674.576 753.226 682.227 741.623 682.227 729.205V720.941C682.227 708.998 672.545 699.316 660.602 699.316V699.316C648.658 699.316 638.976 689.634 638.976 677.69V677.158C638.976 664.921 648.896 655.001 661.134 655.001H705Z"
              fill="#299059"/>
    </g>
    <defs>
        <clipPath id="clip0_14_237">
            <rect width="800" height="800" fill="white"/>
        </clipPath>
    </defs>
</svg>
