<svg width="800" height="800" viewBox="0 0 800 800" fill="none" xmlns="http://www.w3.org/2000/svg">
    <g clip-path="url(#clip0_4_3)">
        <g filter="url(#filter0_f_4_3)">
            <path d="M274.344 274.356C323.556 225.192 403.594 225.192 452.744 274.356L586.705 408.324L676.964 287.549L540.271 247.286L467.493 40L312.066 131L112.863 112.831L112.839 112.816V112.831H112.794L112.839 112.876L130.971 312.086L40 467.49L247.265 540.26L287.552 676.958L408.327 586.691L274.358 452.756C225.171 403.589 225.171 323.552 274.344 274.356Z"
                  fill="#3edc88" fill-opacity="0.69"/>
            <path d="M273.991 274.002L273.99 274.002C224.622 323.394 224.622 403.747 274.005 453.109L407.565 586.636L287.828 676.128L247.745 540.118L247.672 539.873L247.431 539.788L40.7379 467.22L131.403 312.338L131.484 312.2L131.469 312.04L113.387 113.381L312.02 131.498L312.18 131.512L312.318 131.431L467.222 40.738L539.8 247.451L539.884 247.693L540.13 247.765L676.134 287.826L586.65 407.562L453.098 274.002C403.752 224.643 323.398 224.643 273.991 274.002Z"
                  stroke="white"/>
        </g>
        <path d="M736.948 625.595L423.727 312.405C393.007 281.654 343.146 281.654 312.402 312.405C281.667 343.14 281.667 392.977 312.402 423.743L625.608 736.948C656.391 767.684 706.189 767.684 736.97 736.948C767.669 706.166 767.692 656.36 736.948 625.595ZM396.884 449.227L341.902 394.23C334.643 386.916 331.092 377.603 331.092 368.044C331.092 358.516 334.627 349.202 341.879 341.89C349.2 334.636 358.545 331.064 368.079 331.064C377.608 331.033 386.953 334.636 394.251 341.919L449.226 396.901L396.884 449.227Z"
              fill="#A3A3A3"/>
    </g>
    <defs>
        <filter id="filter0_f_4_3" x="8" y="8" width="700.964" height="700.958" filterUnits="userSpaceOnUse"
                color-interpolation-filters="sRGB">
            <feFlood flood-opacity="0" result="BackgroundImageFix"/>
            <feBlend mode="normal" in="SourceGraphic" in2="BackgroundImageFix" result="shape"/>
            <feGaussianBlur stdDeviation="16" result="effect1_foregroundBlur_4_3"/>
        </filter>
        <clipPath id="clip0_4_3">
            <rect width="800" height="800" fill="white"/>
        </clipPath>
    </defs>
</svg>
