<svg width="800.000000" height="800.000000" viewBox="0 0 800 800" fill="none" xmlns="http://www.w3.org/2000/svg" xmlns:xlink="http://www.w3.org/1999/xlink">
	<desc>
			Created with Pixso.
	</desc>
	<defs>
		<clipPath id="clip5_35">
			<rect id="Mobile" width="800.000000" height="800.000000" fill="white" fill-opacity="0"/>
		</clipPath>
	</defs>
	<g clip-path="url(#clip5_35)">
		<path id="Rectangle 1" d="M265 0L535 0C605.692 0 663 57.3076 663 128L663 672C663 742.692 605.692 800 535 800L265 800C194.308 800 137 742.692 137 672L137 128C137 57.3076 194.308 0 265 0Z" fill="currentColor" fill-opacity="1.000000" fill-rule="evenodd"/>
		<path id="Rectangle 1" d="M265 0L535 0C605.692 0 663 57.3076 663 128L663 672C663 742.692 605.692 800 535 800L265 800C194.308 800 137 742.692 137 672L137 128C137 57.3076 194.308 0 265 0ZM265 64L535 64C543.837 64 552.026 65.5621 559.569 68.6863C567.111 71.8105 574.006 76.4968 580.255 82.7452C586.503 88.9935 591.189 95.8889 594.314 103.431C597.438 110.974 599 119.163 599 128L599 672C599 680.837 597.438 689.026 594.314 696.569C591.189 704.111 586.503 711.006 580.255 717.255C574.006 723.503 567.111 728.19 559.568 731.314C552.026 734.438 543.836 736 535 736L265 736C256.163 736 247.974 734.438 240.432 731.314C232.889 728.19 225.994 723.503 219.745 717.255C213.497 711.006 208.811 704.111 205.686 696.569C202.562 689.026 201 680.837 201 672L201 128C201 119.163 202.562 110.974 205.686 103.432C208.81 95.889 213.497 88.9936 219.745 82.7452C225.994 76.4968 232.889 71.8105 240.432 68.6862C247.974 65.5621 256.163 64 265 64Z" fill="#000000" fill-opacity="1.000000" fill-rule="evenodd"/>
		<path id="path" d="M399.999 669C388.596 669 377.657 664.468 369.595 656.405C361.532 648.343 357 637.404 357 626.001C357 617.495 359.52 609.183 364.245 602.11C368.971 595.041 375.688 589.528 383.544 586.273C391.4 583.018 400.047 582.167 408.389 583.827C416.731 585.487 424.393 589.58 430.404 595.596C436.42 601.607 440.514 609.27 442.173 617.611C443.833 625.953 442.982 634.6 439.727 642.456C436.472 650.312 430.959 657.029 423.89 661.755C416.817 666.48 408.505 669 399.999 669Z" fill="gray" fill-opacity="1.000000" fill-rule="nonzero"/>
		<path id="path" d="M369.595 656.405C361.532 648.343 357 637.404 357 626.001C357 617.495 359.52 609.183 364.245 602.11C368.971 595.041 375.688 589.528 383.544 586.273C391.4 583.018 400.047 582.167 408.389 583.827C416.731 585.487 424.393 589.58 430.404 595.596C436.42 601.607 440.514 609.27 442.173 617.611C443.833 625.953 442.982 634.6 439.727 642.456C436.472 650.312 430.959 657.029 423.89 661.755C416.817 666.48 408.505 669 399.999 669C388.596 669 377.657 664.468 369.595 656.405Z" stroke="#000000" stroke-opacity="1.000000" stroke-width="36.000000"/>
	</g>
</svg>
