<svg width="800" height="800" viewBox="0 0 800 800" fill="none" xmlns="http://www.w3.org/2000/svg">
<rect width="800" height="800" fill="none"/>
<rect y="250" width="800" height="300" rx="150" fill="#2b2d30"/>
<circle cx="150" cy="400" r="130" fill="#155D27"/>
<g clip-path="url(#clip0_16_11)">
<path d="M215.63 331.171C211.839 327.38 207.807 323.98 203.584 320.965C230.121 358.096 226.728 410.03 193.391 443.366C160.055 476.701 108.122 480.095 70.9912 453.559C74.0061 457.781 77.4061 461.813 81.1971 465.604C118.319 502.726 178.508 502.726 215.629 465.604C252.751 428.482 252.752 368.294 215.63 331.171Z" fill="#FEE187"/>
<path d="M161.202 499.207C183.5 496.425 204.122 486.384 220.266 470.24C235.013 455.493 244.267 437.302 248.035 418.232C248.281 416.989 248.501 415.742 248.699 414.492C248.847 413.565 248.981 412.636 249.103 411.707C253.071 381.448 243.462 349.734 220.265 326.536C212.197 318.468 202.95 311.877 192.784 306.946C187.007 304.14 180.928 301.878 174.717 300.222C172.456 299.618 170.046 300.266 168.392 301.922C166.738 303.577 166.092 305.988 166.695 308.248C171.135 324.876 170.669 342.308 165.345 358.657C164.224 362.1 166.106 365.801 169.548 366.921C172.991 368.042 176.691 366.16 177.812 362.717C182.704 347.694 184.023 331.876 181.74 316.374C183.54 317.104 185.316 317.895 187.06 318.741C191.185 320.742 195.128 323.07 198.884 325.684C223.404 360.893 219.224 408.263 188.756 438.73C172.044 455.442 149.822 464.646 126.185 464.647C107.968 464.648 90.5402 459.177 75.6959 448.837C73.0873 445.087 70.7635 441.15 68.7658 437.032C67.9174 435.284 67.1267 433.506 66.3951 431.702C97.9164 436.296 130.264 425.809 153.049 403.023C155.609 400.463 155.609 396.312 153.049 393.751C150.489 391.191 146.338 391.191 143.777 393.751C121.505 416.024 88.7413 424.805 58.2735 416.668C56.0137 416.066 53.6024 416.711 51.9481 418.365C50.2934 420.018 49.6449 422.429 50.2477 424.69C51.9016 430.895 54.1633 436.974 56.97 442.755C61.597 452.295 67.6861 461.024 75.0834 468.729C75.5713 469.238 76.0643 469.741 76.5623 470.239C95.7543 489.431 121.272 500 148.414 500C152.555 500 156.658 499.751 160.707 499.266C160.804 499.254 160.902 499.245 160.999 499.234C161.067 499.226 161.134 499.216 161.202 499.207ZM126.185 477.759C153.324 477.758 178.839 467.19 198.027 448.001C215.14 430.888 225.598 408.193 227.476 384.096C228.24 374.287 227.572 364.485 225.558 354.999C225.576 355.032 225.596 355.064 225.615 355.098C226.131 356.02 226.627 356.951 227.108 357.888C227.209 358.083 227.309 358.279 227.408 358.476C227.88 359.411 228.337 360.352 228.774 361.3C228.837 361.437 228.896 361.575 228.959 361.713C229.364 362.603 229.752 363.499 230.125 364.399C230.188 364.551 230.253 364.701 230.315 364.852C230.704 365.805 231.072 366.764 231.426 367.726C231.506 367.947 231.586 368.167 231.666 368.387C232.012 369.352 232.344 370.32 232.655 371.294C232.704 371.445 232.748 371.597 232.796 371.747C233.079 372.649 233.347 373.556 233.6 374.465C233.65 374.645 233.703 374.824 233.753 375.006C234.017 375.977 234.262 376.953 234.493 377.931C234.549 378.171 234.604 378.41 234.659 378.65C234.882 379.633 235.093 380.619 235.282 381.608C235.313 381.769 235.34 381.931 235.369 382.092C235.538 383 235.692 383.91 235.832 384.823C235.863 385.026 235.897 385.227 235.927 385.429C236.071 386.412 236.197 387.396 236.308 388.383C236.336 388.634 236.363 388.885 236.389 389.136C236.492 390.131 236.584 391.127 236.654 392.124C236.666 392.287 236.673 392.451 236.684 392.614C236.743 393.525 236.787 394.437 236.818 395.35C236.825 395.565 236.835 395.782 236.841 395.997C236.867 396.983 236.875 397.97 236.869 398.957C236.867 399.212 236.864 399.467 236.859 399.722C236.844 400.721 236.818 401.721 236.769 402.718C236.762 402.872 236.75 403.026 236.741 403.179C236.692 404.096 236.627 405.012 236.55 405.927C236.532 406.147 236.515 406.366 236.495 406.586C236.404 407.569 236.295 408.552 236.172 409.533C236.14 409.783 236.107 410.032 236.073 410.282C235.939 411.279 235.793 412.275 235.625 413.268C235.602 413.404 235.575 413.539 235.551 413.674C235.392 414.594 235.215 415.512 235.026 416.427C234.981 416.643 234.939 416.86 234.892 417.076C234.684 418.049 234.457 419.019 234.215 419.985C234.155 420.222 234.094 420.459 234.033 420.696C233.777 421.683 233.51 422.668 233.22 423.647C233.187 423.758 233.15 423.869 233.117 423.98C232.841 424.898 232.548 425.812 232.242 426.722C232.173 426.93 232.105 427.137 232.033 427.345C231.706 428.297 231.36 429.244 230.998 430.187C230.913 430.408 230.826 430.628 230.739 430.848C230.36 431.814 229.968 432.776 229.554 433.731C229.518 433.814 229.48 433.896 229.443 433.978C229.045 434.888 228.628 435.791 228.198 436.689C228.105 436.882 228.014 437.076 227.92 437.269C227.471 438.19 227.003 439.105 226.52 440.013C226.413 440.214 226.303 440.414 226.195 440.615C225.689 441.548 225.171 442.476 224.629 443.394C224.596 443.45 224.562 443.504 224.529 443.559C224.004 444.444 223.458 445.32 222.899 446.191C222.782 446.373 222.667 446.555 222.549 446.736C221.978 447.611 221.389 448.478 220.784 449.337C220.656 449.519 220.524 449.7 220.395 449.882C219.761 450.767 219.115 451.645 218.444 452.511C218.419 452.543 218.394 452.574 218.369 452.606C217.713 453.452 217.033 454.286 216.343 455.112C216.202 455.281 216.062 455.45 215.92 455.618C215.228 456.432 214.52 457.237 213.794 458.031C213.642 458.198 213.487 458.363 213.333 458.528C212.582 459.338 211.818 460.14 211.032 460.928C211.019 460.941 211.008 460.954 210.995 460.966C196.929 475.033 178.961 483.78 159.532 486.199C159.48 486.206 159.428 486.214 159.376 486.22C159.281 486.232 159.185 486.241 159.09 486.252C157.989 486.383 156.884 486.492 155.774 486.582C155.15 486.633 154.526 486.677 153.9 486.716C152.081 486.826 150.252 486.889 148.414 486.889H148.413C147.54 486.889 146.671 486.872 145.803 486.847C145.539 486.84 145.275 486.828 145.011 486.818C144.385 486.795 143.76 486.765 143.136 486.728C142.859 486.712 142.583 486.696 142.307 486.678C141.586 486.63 140.867 486.572 140.15 486.506C140.005 486.492 139.86 486.483 139.715 486.468C138.864 486.386 138.015 486.289 137.169 486.182C136.925 486.151 136.681 486.116 136.437 486.083C135.818 486 135.202 485.912 134.587 485.816C134.304 485.772 134.021 485.727 133.738 485.68C133.103 485.574 132.469 485.461 131.837 485.342C131.622 485.301 131.405 485.264 131.191 485.222C130.365 485.06 129.542 484.887 128.724 484.701C128.509 484.653 128.297 484.6 128.083 484.55C127.462 484.405 126.843 484.253 126.226 484.096C125.944 484.023 125.663 483.949 125.381 483.873C124.798 483.717 124.217 483.554 123.638 483.386C123.39 483.314 123.141 483.245 122.894 483.171C122.095 482.931 121.299 482.683 120.509 482.421C120.35 482.369 120.193 482.312 120.034 482.258C119.388 482.04 118.745 481.815 118.105 481.583C117.833 481.484 117.561 481.382 117.291 481.28C116.742 481.074 116.194 480.862 115.649 480.645C115.39 480.542 115.13 480.44 114.872 480.335C114.141 480.036 113.414 479.728 112.692 479.41C112.615 479.376 112.538 479.343 112.461 479.309C111.725 478.981 110.993 478.641 110.266 478.293C110.018 478.174 109.771 478.051 109.524 477.93C108.992 477.669 108.462 477.404 107.936 477.133C107.682 477.002 107.428 476.872 107.176 476.738C106.568 476.417 105.963 476.088 105.361 475.752C105.247 475.688 105.132 475.627 105.018 475.563C111.911 477.018 118.996 477.759 126.185 477.759Z" fill="#FFC61B"/>
</g>
<defs>
<clipPath id="clip0_16_11">
<rect width="200" height="200" fill="white" transform="translate(50 300)"/>
</clipPath>
</defs>
</svg>
