<svg width="512pt" height="512pt" viewBox="0 0 512 512" version="1.1" xmlns="http://www.w3.org/2000/svg">
    <path fill="#000000" opacity="1.00"
          d=" M 239.55 30.56 C 248.31 21.88 263.76 21.90 272.50 30.59 C 295.56 53.49 318.46 76.55 341.48 99.50 C 344.22 102.18 346.97 105.00 348.52 108.57 C 351.84 115.59 351.14 124.30 346.73 130.70 C 342.84 136.58 336.07 140.38 329.03 140.64 C 322.75 140.98 316.43 138.48 312.00 134.03 C 301.32 123.39 290.70 112.70 280.00 102.07 C 279.98 121.40 280.03 140.74 279.98 160.07 C 280.06 169.27 274.28 178.20 265.84 181.87 C 258.56 185.21 249.61 184.54 242.93 180.10 C 236.22 175.82 231.95 168.01 232.01 160.03 C 231.98 140.71 232.02 121.39 231.99 102.07 C 221.31 112.72 210.68 123.42 199.98 134.06 C 194.61 139.51 186.36 141.87 178.92 140.09 C 171.25 138.40 164.74 132.38 162.44 124.88 C 159.76 116.76 162.28 107.35 168.52 101.54 C 192.21 77.90 215.82 54.16 239.55 30.56 Z"/>
    <path fill="#000000" opacity="1.00"
          d=" M 101.53 168.53 C 106.02 163.84 112.50 161.06 119.01 161.41 C 127.53 161.66 135.57 167.22 138.84 175.08 C 142.52 183.35 140.50 193.67 134.04 200.00 C 123.41 210.69 112.72 221.32 102.08 231.99 C 121.40 232.02 140.73 231.98 160.06 232.01 C 167.53 231.98 174.89 235.68 179.28 241.73 C 183.15 246.92 184.76 253.71 183.63 260.09 C 182.24 268.59 175.88 276.06 167.68 278.72 C 163.30 280.30 158.58 279.98 154.01 280.00 C 136.70 280.00 119.39 279.99 102.08 280.01 C 112.72 290.68 123.40 301.31 134.04 311.99 C 139.73 317.60 142.06 326.33 139.85 334.01 C 137.84 341.57 131.61 347.80 124.05 349.79 C 116.33 352.01 107.56 349.64 101.96 343.88 C 78.79 320.77 55.69 297.59 32.52 274.48 C 29.36 271.47 26.63 267.90 25.29 263.71 C 22.31 255.25 24.66 245.28 31.05 239.02 C 54.53 215.51 78.04 192.03 101.53 168.53 Z"/>
    <path fill="#000000" opacity="1.00"
          d=" M 388.99 161.94 C 396.44 160.19 404.64 162.62 410.01 168.07 C 433.67 191.71 457.34 215.34 480.97 239.02 C 490.05 247.74 490.27 263.57 481.40 272.52 C 457.83 296.22 434.12 319.79 410.51 343.45 C 406.01 348.15 399.53 350.92 393.01 350.59 C 384.48 350.34 376.44 344.76 373.15 336.90 C 369.59 328.84 371.35 318.78 377.52 312.47 C 388.31 301.63 399.16 290.84 409.96 280.01 C 392.63 279.99 375.31 280.00 357.98 280.00 C 353.66 279.97 349.23 280.28 345.05 278.96 C 338.01 276.85 332.08 271.34 329.54 264.43 C 326.68 256.98 327.89 248.14 332.69 241.77 C 337.12 235.71 344.49 231.94 352.01 232.01 C 371.32 231.98 390.64 232.02 409.96 231.99 C 399.30 221.31 388.62 210.66 377.95 199.98 C 372.51 194.64 370.13 186.44 371.88 179.02 C 373.66 170.66 380.63 163.71 388.99 161.94 Z"/>
    <path fill="#000000" opacity="1.00"
          d=" M 248.43 216.74 C 257.66 214.98 267.53 216.51 275.69 221.20 C 284.68 226.26 291.56 234.94 294.38 244.86 C 297.53 255.55 295.92 267.54 290.01 277.00 C 284.36 286.22 274.82 292.95 264.22 295.11 C 253.12 297.50 241.06 294.84 232.02 287.96 C 225.15 282.83 219.99 275.43 217.62 267.18 C 214.46 256.47 216.05 244.46 221.98 234.99 C 227.76 225.59 237.58 218.78 248.43 216.74 Z"/>
    <path fill="#000000" opacity="1.00"
          d=" M 232.05 350.92 C 232.25 338.13 244.26 327.16 257.01 328.03 C 269.08 328.25 279.72 338.88 279.94 350.95 C 280.08 370.60 279.95 390.27 280.00 409.92 C 290.70 399.30 301.33 388.60 312.01 377.95 C 317.61 372.25 326.35 369.93 334.03 372.15 C 342.25 374.30 348.80 381.52 350.24 389.88 C 351.68 397.32 348.96 405.26 343.50 410.47 C 319.82 434.12 296.21 457.85 272.47 481.44 C 263.71 490.10 248.26 490.10 239.52 481.40 C 215.80 457.81 192.21 434.10 168.53 410.48 C 163.82 406.00 161.07 399.51 161.41 393.00 C 161.65 384.99 166.57 377.37 173.73 373.79 C 181.96 369.44 192.84 370.97 199.50 377.49 C 210.39 388.25 221.15 399.13 231.99 409.93 C 232.04 390.26 231.92 370.59 232.05 350.92 Z"/>
</svg>
