<svg width="800" height="800" viewBox="0 0 800 800" fill="none" xmlns="http://www.w3.org/2000/svg">
    <g clip-path="url(#clip0_14_221)">
        <path d="M350 0C322.266 0 300 22.2656 300 50H200C117.773 50 50 117.773 50 200V650C50 732.227 117.773 800 200 800H300C327.539 800 350 777.539 350 750C350 722.461 327.539 700 300 700H200C171.484 700 150 678.516 150 650V200C150 171.484 171.484 150 200 150H250V200C250 227.734 272.266 250 300 250H500C527.734 250 550 227.734 550 200V150H600C628.516 150 650 171.484 650 200V300C650 327.539 672.461 350 700 350C727.539 350 750 327.539 750 300V200C750 117.773 682.227 50 600 50H500C500 22.2656 477.734 0 450 0H350Z"
              fill="#2E3436" fill-opacity="0.35"/>
        <path d="M428.025 438C404.386 438 386 455.345 386 477.645V760.821C386 783.121 404.386 800.465 428.025 800.465H728.202C751.841 800.465 770.226 783.121 770.226 760.821V477.645C770.226 455.345 751.841 438 728.202 438H428.025Z"
              fill="#299059"/>
        <path fill-rule="evenodd" clip-rule="evenodd"
              d="M442.163 747.752C517.213 818.228 638.615 818.129 713.534 747.453C731.614 730.397 745.337 710.787 754.703 689.854C764.427 668.166 769.805 644.317 769.806 619.279C769.807 608.814 768.85 598.448 766.985 588.286C762.962 566.323 754.631 544.925 741.993 525.301C734.091 513.011 724.608 501.577 713.677 491.286C713.629 491.241 713.582 491.196 713.534 491.151C684.001 463.29 647.244 446.397 608.951 440.471C598.68 438.877 588.235 438.065 577.713 438.066C551.167 438.067 525.882 443.142 502.888 452.319C480.704 461.154 459.921 474.098 441.845 491.151C366.926 561.827 366.82 676.353 441.528 747.153C441.739 747.353 441.951 747.553 442.163 747.752ZM442.163 747.752C476.895 780.365 524.788 800.514 577.694 800.511C657.286 800.507 725.541 754.894 754.703 689.854C769.118 657.636 773.212 622.284 766.985 588.286C762.881 565.933 754.38 544.567 741.993 525.301C734.195 513.192 724.756 501.759 713.677 491.286C710.406 488.207 707.006 485.231 703.48 482.364C676.541 460.237 643.749 445.869 608.951 440.471C573.404 434.97 536.534 438.919 502.888 452.319C433.95 479.832 385.605 544.218 385.601 619.298C385.598 669.207 406.957 714.388 441.528 747.153C441.633 747.253 441.739 747.353 441.845 747.453C441.951 747.553 442.057 747.652 442.163 747.752ZM625.734 528.675C625.735 516.16 620.429 504.646 611.806 496.511C603.183 488.376 590.978 483.371 577.711 483.372C551.177 483.373 529.684 503.649 529.683 528.68L529.68 573.985L481.655 573.988C455.121 573.989 433.628 594.265 433.627 619.296C433.625 644.326 455.116 664.6 481.65 664.599L529.675 664.597L529.673 709.902C529.671 734.933 551.163 755.207 577.696 755.206C604.23 755.204 625.723 734.928 625.724 709.898L625.727 664.592L673.752 664.59C700.286 664.588 721.779 644.312 721.78 619.282C721.782 594.251 700.291 573.977 673.757 573.978L625.732 573.981L625.734 528.675Z"
              fill="white"/>
    </g>
    <defs>
        <clipPath id="clip0_14_221">
            <rect width="800" height="800" fill="white"/>
        </clipPath>
    </defs>
</svg>
