<svg width="800" height="800" viewBox="0 0 800 800" fill="none" xmlns="http://www.w3.org/2000/svg">
<path d="M585.742 400.586C537.695 403.906 492.578 424.609 458.594 458.594C380.469 536.719 380.469 663.281 458.594 741.406C536.719 819.531 663.281 819.531 741.406 741.406C819.531 663.281 819.531 536.719 741.406 458.594C700.391 417.578 643.555 396.289 585.742 400.586ZM529.297 479.102C541.992 479.102 554.883 484.18 564.648 493.945L600 529.297L635.352 493.945C654.883 474.414 686.523 474.414 706.055 493.945C725.586 513.477 725.586 545.117 706.055 564.648L670.703 600L706.055 635.352C725.586 654.883 725.586 686.523 706.055 706.055C686.523 725.586 654.883 725.586 635.352 706.055L600 670.703L564.648 706.055C545.117 725.586 513.477 725.586 493.945 706.055C474.414 686.523 474.414 654.883 493.945 635.352L529.297 600L493.945 564.648C474.414 545.117 474.414 513.477 493.945 493.945C503.711 484.18 516.602 479.102 529.297 479.102Z" fill="#FF0000" fill-opacity="0.75"/>
<path d="M350 0C322.266 0 300 22.2656 300 50H200C117.773 50 50 117.773 50 200V650C50 732.227 117.773 800 200 800H300C327.539 800 350 777.539 350 750C350 722.461 327.539 700 300 700H200C171.484 700 150 678.516 150 650V200C150 171.484 171.484 150 200 150H250V200C250 227.734 272.266 250 300 250H500C527.734 250 550 227.734 550 200V150H600C628.516 150 650 171.484 650 200V300C650 327.539 672.461 350 700 350C727.539 350 750 327.539 750 300V200C750 117.773 682.227 50 600 50H500C500 22.2656 477.734 0 450 0H350Z" fill="#2E3436" fill-opacity="0.35"/>
</svg>
