<svg width="800" height="800" viewBox="0 0 800 800" fill="none" xmlns="http://www.w3.org/2000/svg">
    <path fill-rule="evenodd" clip-rule="evenodd"
          d="M400 300C565.685 300 700 434.315 700 600H800C800 566.19 795.714 532.592 787.298 500C782.639 481.956 776.715 464.22 769.552 446.927C749.803 399.249 721.019 355.852 684.794 319.122C684.146 318.465 683.496 317.81 682.843 317.157C682.19 316.504 681.535 315.854 680.878 315.206C644.148 278.981 600.75 250.197 553.073 230.448C504.549 210.349 452.541 200.003 400.019 200C400.013 200 400.006 200 400 200C347.471 200 295.457 210.346 246.927 230.448C198.823 250.373 155.076 279.497 118.138 316.18C117.811 316.505 117.484 316.831 117.157 317.157C116.831 317.484 116.505 317.811 116.18 318.138C79.4967 355.076 50.3734 398.823 30.4482 446.927C23.285 464.22 17.3606 481.956 12.7016 500C4.28639 532.592 -2.9558e-06 566.19 0 600H100C100 517.167 133.57 442.176 187.848 387.888C187.855 387.881 187.861 387.875 187.868 387.868C215.726 360.01 248.797 337.913 285.195 322.836C321.593 307.76 360.603 300 400 300Z"
          fill="#CACACA"/>
    <path fill-rule="evenodd" clip-rule="evenodd"
          d="M100.021 596.403C100.007 597.603 99.9996 598.801 99.9996 600H0C0 598.402 0.00937048 596.806 0.0280595 595.213C0.291447 573.197 2.37388 551.128 6.31003 529.231C22.1163 441.3 66.905 361.192 133.536 301.676C200.167 242.161 284.804 206.666 373.955 200.849C381.553 200.353 389.145 200.075 396.725 200.013C397.816 200.004 398.907 200 400 200C401.31 200 402.618 200.006 403.924 200.019C449.024 200.461 493.557 208.527 535.675 223.712C567.208 235.081 597.387 250.441 625.438 269.58L569.095 352.161C521.702 319.764 464.542 300.606 402.941 300.014C401.144 299.997 399.345 299.995 397.545 300.01C234.188 301.319 101.938 433.192 100.021 596.403Z"
          fill="#008000"/>
</svg>
