<?xml version="1.0" encoding="utf-8"?>
<!-- Generator: Adobe Illustrator 27.5.0, SVG Export Plug-In . SVG Version: 6.00 Build 0)  -->
<svg version="1.1" id="Layer_1" xmlns="http://www.w3.org/2000/svg" xmlns:xlink="http://www.w3.org/1999/xlink" x="0px" y="0px"
	 viewBox="0 0 52 52" style="enable-background:new 0 0 52 52;" xml:space="preserve">
<style type="text/css">
	.st0{fill:#231F20;}
	.st1{fill:#6FB0B6;}
	.st2{fill:#45AF6A;}
	.st3{fill:black;}
</style>
<path class="st0" d="M48.1,5.5v18.2c0,0.7-0.6,1.3-1.3,1.3H28.5c-0.8,0-1.4-0.6-1.4-1.4v-3.1c0-0.8,0.7-1.5,1.5-1.5h7
	c0.9,0,1.6-0.4,1.3-1.2c-0.3-0.5-0.7-1-1.2-1.4c-2.8-2.8-6.6-4.4-10.6-4.4c-5.2,0-10.1,2.7-12.9,7.6c-0.7,1.2-1.3,2.5-1.6,3.8
	C9,30,11.7,36.6,17.4,40.1c1.2,0.7,2.5,1.3,3.8,1.6c4.9,1.2,9.8,0,13.4-3c0.6-0.5,1.5-0.4,2,0.1l2.1,2.1c0.6,0.6,0.6,1.6-0.1,2.2
	c-3.8,3.2-8.6,5-13.7,5c-5.8,0-11.2-2.3-15.2-6.5c-3.8-3.9-5.9-9.3-5.8-14.7c0.1-7,3.6-13.5,9.7-17.5c2.1-1.4,4.5-2.4,7-2.9
	c7.2-1.4,14.2,0.7,19.2,5.7c0.4,0.3,0.7,0.6,1,1c0.7,0.6,1.2,0.2,1.2-0.7v-7C42,4.7,42.7,4,43.5,4h3C47.3,4,48,4.7,48.1,5.5z"/>
<g id="SVGRepo_iconCarrier">
	<circle class="st1" cx="38.1" cy="38.5" r="11.9"/>
	<g>
		<path class="st2" d="M45.6,47.3C45.6,47.3,45.6,47.3,45.6,47.3c-0.7,0-1-0.1-1.1-0.1l0.1-0.4l-0.2,0l-0.4,0.1L44,46.6l0-0.1
			c0-0.2,0.1-0.4,0.1-0.7c0.1-0.3,0.2-0.6,0.2-1c0-0.6-0.3-1.2-0.6-1.9c-0.3-0.6-0.6-1.3-0.6-1.9c0-1.1-0.8-1.3-2.5-1.3
			c-0.4,0-0.9-0.3-1.2-0.9c-0.5-0.9-0.8-2.5,0-4.1c0.2-0.5,0.9-1.9,2.7-1.9c0.7,0,1.4,0.2,2.3,0.6c0.7,0.4,1.4,0.6,2.1,0.6
			c0.7,0,1.2-0.2,1.7-0.3l0.2,0l0.5-0.2l0.2,0.5c0.6,1.4,0.9,2.9,0.9,4.5c0,3.3-1.3,6.4-3.7,8.6L46,47.5L45.6,47.3z"/>
		<path class="st2" d="M40.6,31c-1.1,0-1.9-0.7-2.1-1.8c-0.1-0.8,0.1-1.7,0.6-1.9l0,0c0.6-0.3,0.9-0.4,1.1-0.4l0.1,0l0.1,0
			c1.3,0.3,2.6,0.8,3.8,1.5l-0.5,1.1c-0.2-0.1-0.5-0.1-0.7-0.1c-0.7,0-1.1,0.5-1.5,0.9C41.4,30.7,41.1,31,40.6,31z"/>
		<path class="st2" d="M33,45.8c-0.4-0.5-0.8-0.8-1.1-1c-1.7-0.9-2.9-2.3-3.8-3.6c-0.3-0.3-0.5-0.6-0.8-1c-0.1-0.2-0.3-0.3-0.4-0.5
			c-0.1-0.2-0.2-0.3-0.4-0.4l-0.2-0.2l0-0.3c0,0,0-0.1,0-0.1c0-0.1,0-0.2,0-0.2c0-4,2-7.7,5.3-9.9l0.2-0.1l0.2,0
			c0.7,0.1,1.3,1.2,1.3,2.2c0,0.4-0.1,0.8-0.3,1.1c-0.2,0.3-0.6,0.5-1.1,0.5c-0.4,0-1.3,0.5-2.3,1.6c-0.9,1-1.5,1.9-1.5,2.2
			c0,0.5,0.8,0.6,2.5,0.6c0.9,0,1.7,0,2.1,0.2l0.4,0.2v5.3c0,0.5,0.2,1,0.4,1.5c0.2,0.4,0.4,0.9,0.5,1.5L33,45.8z"/>
	</g>
	<path class="st3" d="M38.1,51.1c6.9,0,12.5-5.6,12.5-12.5S45,26,38.1,26s-12.5,5.6-12.5,12.5S31.2,51.1,38.1,51.1z M48.5,34.3
		c0.5,1.3,0.8,2.7,0.8,4.2c0,3.2-1.4,6.1-3.5,8.2c-0.1,0-0.1,0-0.2,0c-0.8,0-0.9-0.1-0.9-0.1c0-0.1,0.1-0.4,0.1-0.6
		c0.1-0.3,0.2-0.7,0.2-1.1c0-0.8-0.4-1.5-0.7-2.2c-0.3-0.6-0.6-1.1-0.6-1.6c0-1.9-1.9-1.9-3.1-1.9c-0.2,0-0.5-0.2-0.7-0.6
		c-0.4-0.7-0.7-2.1,0-3.5c0.3-0.6,1.2-2.4,4.2-1c2,1,3.3,0.6,4.3,0.3C48.4,34.4,48.5,34.4,48.5,34.3z M39.4,27.9
		c0.5-0.3,0.8-0.4,1-0.4c1.3,0.3,2.5,0.8,3.6,1.5c-1.6-0.5-2.3,0.4-2.8,1c-0.3,0.3-0.4,0.5-0.6,0.5c-1.1,0-1.4-0.8-1.5-1.2
		C39,28.5,39.2,27.9,39.4,27.9z M26.8,38.5c0-3.9,2-7.4,5-9.4c0.3,0,0.8,0.8,0.8,1.6c0,0.3-0.1,0.5-0.2,0.7c0,0.1-0.2,0.2-0.6,0.2
		c-1.6,0-4.4,3.5-4.4,4.4c0,1.3,1.6,1.3,3.1,1.3c0.6,0,1.5,0,1.9,0.1v4.9c0,0.6,0.2,1.2,0.5,1.8c0.2,0.4,0.4,0.8,0.5,1.4
		c-0.4-0.5-0.8-0.9-1.4-1.2c-1.6-0.8-2.7-2.2-3.6-3.4c-0.4-0.5-0.9-1-1.2-1.5c-0.2-0.2-0.3-0.3-0.4-0.5
		C26.8,38.8,26.8,38.7,26.8,38.5z M27.5,41.6c1,1.3,2.2,2.8,4.1,3.8c0.7,0.4,1.3,1.4,1.7,2c0.3,0.5,0.6,0.9,1,0.9c0.1,0,0.1,0,0.2,0
		c0.5-0.1,0.5-0.7,0.5-0.9c0-1.8-0.5-2.9-0.9-3.8c-0.2-0.5-0.4-0.9-0.4-1.2v-5c0-1.3-1.6-1.3-3.1-1.3c-0.6,0-1.4,0-1.8-0.1
		c0.4-0.8,2.3-3,3.1-3c0.8,0,1.3-0.4,1.6-0.7c0.3-0.4,0.5-0.9,0.5-1.5c0-0.8-0.3-1.7-0.9-2.3c1.5-0.8,3.2-1.2,5.1-1.2
		c0,0,0.1,0,0.1,0c-0.3,0.4-0.4,0.9-0.4,1.5c0,0.7,0.2,1.4,0.6,1.9c0.4,0.4,1,1,2.2,1c0.8,0,1.2-0.5,1.6-0.9
		c0.5-0.6,0.8-0.9,1.9-0.4c1.2,0.6,1.4,0.9,1.6,1c0.3,0.3,0.6,0.3,1.2,0.3c0,0,0.1,0,0.1,0c0.4,0.5,0.7,1,1,1.5
		c-0.9,0.3-1.8,0.6-3.4-0.2c-2.6-1.3-4.7-0.8-5.9,1.5c-1,1.9-0.6,3.8,0,4.7c0.5,0.7,1.1,1.2,1.8,1.2c1.6,0,1.9,0.1,1.9,0.6
		c0,0.8,0.4,1.5,0.7,2.2c0.3,0.6,0.6,1.1,0.6,1.6c0,0.3-0.1,0.5-0.2,0.8c-0.1,0.5-0.3,1.2,0.1,1.7c0.2,0.2,0.5,0.4,0.8,0.5
		c-1.8,1.3-4,2-6.4,2c-5.3,0-9.8-3.7-11-8.7C27.3,41.3,27.4,41.4,27.5,41.6z"/>
</g>
</svg>
