<?xml version="1.0" encoding="UTF-8" ?>
<!DOCTYPE svg PUBLIC "-//W3C//DTD SVG 1.1//EN" "http://www.w3.org/Graphics/SVG/1.1/DTD/svg11.dtd">
<svg width="827pt" height="825pt" viewBox="0 0 827 825" version="1.1" xmlns="http://www.w3.org/2000/svg">
<path fill="#222129" opacity="1.00" d=" M 683.87 63.55 C 689.34 61.46 695.28 62.08 701.01 62.00 C 714.04 62.05 727.08 61.90 740.11 62.07 C 753.17 62.45 764.32 74.18 765.21 86.99 C 765.24 181.32 765.21 275.66 765.23 370.00 C 765.24 374.28 765.47 378.74 763.77 382.78 C 760.61 391.10 751.85 396.76 742.96 396.21 C 646.64 396.24 550.32 396.28 454.00 396.19 C 442.18 396.98 431.23 386.92 431.10 375.07 C 430.91 358.03 430.99 340.98 431.06 323.95 C 431.29 311.46 442.43 300.39 454.96 300.41 C 491.65 300.37 528.34 300.40 565.03 300.40 C 571.70 300.48 578.92 299.59 584.25 295.22 C 588.61 291.55 588.89 284.71 585.85 280.12 C 581.08 272.43 575.09 265.41 567.98 259.79 C 537.55 229.03 498.48 206.97 456.48 196.60 C 423.36 188.47 388.47 187.47 354.98 193.92 C 318.62 200.89 283.99 216.74 255.04 239.81 C 231.66 258.21 212.02 281.20 196.91 306.79 C 187.20 322.99 178.67 340.02 172.89 358.03 C 155.72 414.52 159.13 477.32 184.00 531.03 C 207.73 582.95 250.78 625.73 302.94 648.96 C 328.60 660.94 356.88 666.31 385.00 668.04 C 385.00 699.71 385.00 731.37 385.00 763.04 C 346.71 761.79 308.60 754.14 272.98 739.98 C 237.23 725.89 204.05 705.38 175.38 679.82 C 150.94 658.01 129.12 633.11 111.94 605.17 C 92.79 574.19 78.76 540.06 70.63 504.56 C 54.39 433.73 62.36 357.67 92.52 291.58 C 115.57 240.88 151.55 196.20 195.95 162.60 C 224.77 140.49 257.03 122.71 291.61 111.41 C 330.60 98.59 372.02 93.66 412.96 95.39 C 464.32 97.61 515.18 111.76 560.05 136.90 C 586.77 151.77 611.19 170.59 632.95 192.04 C 638.69 196.55 644.15 201.52 648.50 207.43 C 651.64 210.91 656.70 213.85 661.49 212.24 C 666.61 209.62 667.68 203.22 667.79 198.01 C 667.85 160.67 667.77 123.33 667.83 86.00 C 667.86 76.13 674.63 66.87 683.87 63.55 Z" />
<path fill="#222129" opacity="1.00" d=" M 548.17 409.12 C 556.95 406.96 565.94 404.58 575.06 405.42 C 589.27 406.75 602.77 414.18 611.52 425.45 C 616.16 431.49 619.11 438.62 621.28 445.87 C 622.84 450.96 626.75 455.51 631.99 456.94 C 637.53 458.70 643.68 456.67 647.77 452.72 C 654.66 446.09 662.82 440.47 672.18 438.08 C 689.30 433.29 708.77 437.95 721.51 450.44 C 732.92 460.65 743.41 471.82 753.86 482.98 C 764.42 495.17 768.39 512.46 764.71 528.10 C 762.57 538.26 756.66 547.19 749.56 554.58 C 745.88 558.31 743.86 563.85 745.03 569.05 C 746.07 574.74 750.74 579.22 756.14 580.93 C 763.27 583.17 770.66 585.72 776.35 590.72 C 787.91 598.69 794.97 612.31 796.80 626.07 C 797.28 632.72 796.81 639.49 795.07 645.94 C 792.89 654.33 791.07 662.82 788.55 671.12 C 786.06 679.51 784.13 688.18 779.97 695.96 C 772.51 709.59 758.40 719.13 743.15 721.70 C 735.13 723.17 726.92 721.88 719.06 720.09 C 713.83 718.83 707.95 720.21 704.05 723.97 C 700.14 727.73 698.66 733.59 699.79 738.84 C 700.53 742.38 701.33 745.92 701.70 749.54 C 704.08 767.09 695.89 785.29 682.03 796.08 C 671.61 804.23 658.27 806.63 645.89 810.28 C 633.75 813.20 621.69 817.55 609.05 817.26 C 591.30 816.34 574.13 805.79 566.00 789.88 C 563.62 785.52 562.07 780.79 560.59 776.08 C 558.90 770.99 554.75 766.56 549.39 765.43 C 543.64 763.83 537.50 766.32 533.51 770.50 C 525.28 778.53 514.70 784.45 503.16 785.78 C 488.42 787.91 472.91 783.27 461.84 773.29 C 453.52 765.54 445.40 757.58 437.52 749.38 C 432.79 744.48 427.78 739.75 424.10 733.96 C 412.89 716.88 413.40 692.93 425.48 676.42 C 429.16 670.48 436.06 666.36 437.12 659.00 C 438.72 650.95 432.67 643.11 424.95 641.29 C 411.17 637.57 398.63 628.81 391.76 616.13 C 385.56 605.33 383.51 592.33 386.17 580.16 C 389.34 567.00 392.60 553.85 396.53 540.90 C 399.46 528.87 406.21 517.60 416.40 510.38 C 427.02 502.56 440.73 498.66 453.84 500.70 C 459.88 501.29 465.94 504.13 472.01 502.09 C 479.45 499.90 483.96 491.58 482.36 484.09 C 480.81 477.17 479.57 470.09 480.04 462.97 C 481.83 442.37 496.79 423.50 516.83 417.88 C 527.16 414.55 537.67 411.83 548.17 409.12 M 564.14 435.28 C 553.02 437.82 542.03 440.91 531.04 443.98 C 526.25 445.66 520.97 446.73 517.11 450.23 C 512.28 454.38 509.34 460.62 509.09 466.97 C 509.33 472.39 511.30 477.56 511.65 482.96 C 513.07 497.68 506.93 513.09 495.21 522.26 C 485.45 530.18 472.25 533.43 459.87 531.56 C 454.29 530.90 448.74 528.42 443.07 529.79 C 435.13 531.29 428.04 537.22 425.79 545.08 C 422.89 554.67 420.14 564.33 417.74 574.06 C 416.23 580.27 414.21 586.47 414.35 592.93 C 415.09 599.74 418.99 606.34 424.96 609.83 C 429.71 612.65 435.30 613.42 440.23 615.84 C 451.93 621.27 461.30 631.72 464.83 644.19 C 468.86 657.94 465.56 673.46 456.68 684.64 C 453.84 688.43 450.09 691.50 447.72 695.64 C 444.38 702.22 444.36 710.46 447.88 716.98 C 450.37 721.09 454.08 724.22 457.27 727.76 C 464.96 736.08 473.21 743.83 481.47 751.57 C 488.24 757.96 499.18 758.65 507.19 754.26 C 511.95 751.06 515.72 746.60 520.56 743.50 C 532.40 735.53 548.18 733.39 561.54 738.64 C 574.18 743.32 584.13 754.20 588.40 766.91 C 589.73 770.45 590.64 774.19 592.50 777.52 C 597.28 785.18 607.10 789.63 615.97 787.52 C 625.85 785.70 635.46 782.71 645.18 780.22 C 651.00 778.58 656.93 777.04 662.35 774.29 C 667.83 770.65 671.77 764.70 672.70 758.15 C 673.53 754.26 672.16 750.39 671.55 746.58 C 667.73 731.46 672.05 714.29 683.40 703.41 C 692.04 694.52 704.64 689.97 716.95 690.48 C 722.73 690.54 728.25 692.54 733.97 693.08 C 743.90 693.64 753.81 686.72 756.42 677.07 C 759.22 667.58 762.01 658.07 764.33 648.45 C 765.81 642.36 767.74 636.27 767.75 629.94 C 767.17 622.99 763.14 616.46 757.25 612.74 C 752.54 609.97 747.02 609.15 742.13 606.81 C 731.42 601.97 722.58 592.96 718.47 581.90 C 713.17 568.59 715.22 552.87 723.12 541.01 C 726.29 535.98 730.96 532.12 734.21 527.15 C 737.11 521.66 737.59 514.93 735.67 509.04 C 734.29 504.38 730.68 500.91 727.45 497.47 C 718.78 488.54 710.04 479.64 700.88 471.20 C 694.35 464.82 683.82 463.91 675.76 467.74 C 671.34 470.18 668.12 474.19 664.09 477.15 C 655.33 483.99 644.02 487.42 632.95 486.67 C 619.70 485.70 607.06 478.49 599.64 467.44 C 594.99 461.20 593.19 453.54 590.34 446.44 C 585.66 437.14 574.10 432.44 564.14 435.28 Z" />
<path fill="#ffffff" opacity="1.00" d=" M 564.14 435.28 C 574.10 432.44 585.66 437.14 590.34 446.44 C 593.19 453.54 594.99 461.20 599.64 467.44 C 607.06 478.49 619.70 485.70 632.95 486.67 C 644.02 487.42 655.33 483.99 664.09 477.15 C 668.12 474.19 671.34 470.18 675.76 467.74 C 683.82 463.91 694.35 464.82 700.88 471.20 C 710.04 479.64 718.78 488.54 727.45 497.47 C 730.68 500.91 734.29 504.38 735.67 509.04 C 737.59 514.93 737.11 521.66 734.21 527.15 C 730.96 532.12 726.29 535.98 723.12 541.01 C 715.22 552.87 713.17 568.59 718.47 581.90 C 722.58 592.96 731.42 601.97 742.13 606.81 C 747.02 609.15 752.54 609.97 757.25 612.74 C 763.14 616.46 767.17 622.99 767.75 629.94 C 767.74 636.27 765.81 642.36 764.33 648.45 C 762.01 658.07 759.22 667.58 756.42 677.07 C 753.81 686.72 743.90 693.64 733.97 693.08 C 728.25 692.54 722.73 690.54 716.95 690.48 C 704.64 689.97 692.04 694.52 683.40 703.41 C 672.05 714.29 667.73 731.46 671.55 746.58 C 672.16 750.39 673.53 754.26 672.70 758.15 C 671.77 764.70 667.83 770.65 662.35 774.29 C 656.93 777.04 651.00 778.58 645.18 780.22 C 635.46 782.71 625.85 785.70 615.97 787.52 C 607.10 789.63 597.28 785.18 592.50 777.52 C 590.64 774.19 589.73 770.45 588.40 766.91 C 584.13 754.20 574.18 743.32 561.54 738.64 C 548.18 733.39 532.40 735.53 520.56 743.50 C 515.72 746.60 511.95 751.06 507.19 754.26 C 499.18 758.65 488.24 757.96 481.47 751.57 C 473.21 743.83 464.96 736.08 457.27 727.76 C 454.08 724.22 450.37 721.09 447.88 716.98 C 444.36 710.46 444.38 702.22 447.72 695.64 C 450.09 691.50 453.84 688.43 456.68 684.64 C 465.56 673.46 468.86 657.94 464.83 644.19 C 461.30 631.72 451.93 621.27 440.23 615.84 C 435.30 613.42 429.71 612.65 424.96 609.83 C 418.99 606.34 415.09 599.74 414.35 592.93 C 414.21 586.47 416.23 580.27 417.74 574.06 C 420.14 564.33 422.89 554.67 425.79 545.08 C 428.04 537.22 435.13 531.29 443.07 529.79 C 448.74 528.42 454.29 530.90 459.87 531.56 C 472.25 533.43 485.45 530.18 495.21 522.26 C 506.93 513.09 513.07 497.68 511.65 482.96 C 511.30 477.56 509.33 472.39 509.09 466.97 C 509.34 460.62 512.28 454.38 517.11 450.23 C 520.97 446.73 526.25 445.66 531.04 443.98 C 542.03 440.91 553.02 437.82 564.14 435.28 M 581.51 539.73 C 563.15 542.09 545.93 551.89 534.51 566.45 C 522.71 581.06 517.22 600.50 519.33 619.13 C 521.04 635.24 528.38 650.72 539.93 662.10 C 550.91 673.40 565.81 680.71 581.42 682.76 C 598.91 685.17 617.27 680.86 631.79 670.79 C 644.89 661.72 655.11 648.35 659.79 633.06 C 663.82 620.47 664.24 606.76 661.05 593.94 C 657.23 578.19 647.83 563.86 634.94 554.04 C 620.01 542.35 600.27 537.21 581.51 539.73 Z" />
<path fill="#222129" opacity="1.00" d=" M 581.51 539.73 C 600.27 537.21 620.01 542.35 634.94 554.04 C 647.83 563.86 657.23 578.19 661.05 593.94 C 664.24 606.76 663.82 620.47 659.79 633.06 C 655.11 648.35 644.89 661.72 631.79 670.79 C 617.27 680.86 598.91 685.17 581.42 682.76 C 565.81 680.71 550.91 673.40 539.93 662.10 C 528.38 650.72 521.04 635.24 519.33 619.13 C 517.22 600.50 522.71 581.06 534.51 566.45 C 545.93 551.89 563.15 542.09 581.51 539.73 M 580.46 569.64 C 563.72 573.70 550.34 588.74 548.43 605.88 C 546.64 619.49 551.85 633.78 562.05 642.98 C 569.86 650.08 580.36 654.32 590.97 654.08 C 604.94 654.42 618.69 647.03 626.48 635.49 C 634.66 623.66 636.26 607.62 630.51 594.43 C 627.62 587.27 622.43 581.27 616.37 576.60 C 606.22 569.11 592.67 566.47 580.46 569.64 Z" />
</svg>
