<?xml version="1.0" encoding="UTF-8" ?>

<svg width="825pt" height="827pt" viewBox="0 0 825 827" version="1.1" xmlns="http://www.w3.org/2000/svg">
<path fill="#161414" opacity="1.00" d=" M 664.87 87.08 C 664.78 73.52 677.56 62.02 691.00 63.05 C 706.36 63.10 721.73 62.95 737.09 63.12 C 750.18 63.46 761.31 75.24 762.24 88.05 C 762.26 184.03 762.24 280.02 762.24 376.01 C 762.55 387.37 752.32 397.60 740.94 397.18 C 645.95 397.29 550.96 397.19 455.97 397.23 C 452.02 397.16 447.98 397.40 444.14 396.33 C 437.31 394.57 431.55 389.15 429.37 382.45 C 427.89 378.12 428.04 373.48 428.05 368.97 C 428.11 354.28 427.94 339.59 428.13 324.91 C 428.37 312.49 439.44 301.49 451.89 301.46 C 489.23 301.41 526.57 301.46 563.91 301.43 C 569.98 301.38 576.40 300.19 581.26 296.32 C 585.67 292.62 585.94 285.70 582.87 281.07 C 578.03 273.18 571.82 266.11 564.56 260.36 C 536.97 232.47 502.17 211.90 464.63 200.60 C 433.11 191.19 399.61 188.41 366.97 192.52 C 330.35 197.08 294.87 210.54 264.52 231.53 C 244.49 245.37 226.59 262.28 211.70 281.55 C 200.81 295.57 191.56 310.80 183.44 326.57 C 178.14 337.21 173.27 348.10 169.73 359.46 C 153.43 413.67 155.88 473.62 178.22 525.79 C 201.46 580.83 246.21 626.43 300.94 650.46 C 326.31 662.15 354.22 667.40 381.96 669.08 C 381.94 700.72 381.94 732.36 381.96 764.01 C 338.63 762.66 295.53 752.91 256.01 735.05 C 225.54 721.38 197.23 702.94 172.31 680.71 C 145.67 656.98 122.26 629.46 104.40 598.51 C 82.23 560.40 67.67 517.86 62.08 474.13 C 52.85 401.82 67.81 326.58 104.56 263.57 C 120.46 236.19 140.22 211.06 163.06 189.13 C 186.36 167.12 212.42 147.94 240.72 132.86 C 275.78 114.26 314.43 102.64 353.86 98.39 C 413.60 91.44 475.32 100.01 530.33 124.57 C 567.22 140.82 600.77 164.29 629.44 192.58 C 634.76 196.99 640.18 201.41 644.34 207.00 C 647.45 211.30 653.09 215.01 658.54 213.27 C 663.67 210.72 664.73 204.28 664.83 199.10 C 664.89 161.76 664.80 124.42 664.87 87.08 Z" />
<path fill="#161414" opacity="1.00" d=" M 416.34 465.42 C 421.07 454.12 432.71 446.11 445.00 446.00 C 553.02 445.98 661.04 446.00 769.06 445.99 C 777.15 446.17 785.53 448.85 791.36 454.66 C 796.94 459.46 800.14 466.72 800.48 474.03 C 800.37 561.00 800.47 647.98 800.43 734.95 C 800.51 743.96 796.79 752.97 790.04 758.99 C 783.69 765.11 774.71 767.81 766.02 767.44 C 661.33 767.55 556.64 767.43 451.95 767.50 C 445.33 767.47 438.44 767.52 432.36 764.52 C 421.07 759.44 413.43 747.36 413.83 734.96 C 413.72 651.64 413.82 568.33 413.78 485.01 C 413.67 478.41 413.58 471.57 416.34 465.42 M 478.01 510.04 C 478.03 531.60 477.92 553.17 478.07 574.73 C 499.56 574.49 521.06 574.96 542.54 574.49 C 542.31 553.01 542.52 531.52 542.43 510.04 C 520.96 510.05 499.48 510.04 478.01 510.04 M 608.13 510.03 C 608.17 531.67 608.18 553.32 608.13 574.96 C 650.84 575.05 693.56 574.98 736.28 575.00 C 736.29 553.33 736.28 531.67 736.28 510.00 C 693.56 510.01 650.85 509.96 608.13 510.03 M 478.00 639.00 C 478.00 660.44 478.00 681.88 478.00 703.33 C 499.47 703.35 520.95 703.35 542.42 703.33 C 542.47 681.89 542.43 660.44 542.44 639.00 C 520.96 639.00 499.48 639.00 478.00 639.00 M 608.14 639.03 C 608.17 660.67 608.18 682.32 608.13 703.96 C 650.84 704.05 693.56 703.98 736.28 704.00 C 736.28 682.33 736.29 660.67 736.28 639.00 C 693.56 639.02 650.85 638.96 608.14 639.03 Z" />
<path fill="#ffffff" opacity="1.00" d=" M 478.01 510.04 C 499.48 510.04 520.96 510.05 542.43 510.04 C 542.52 531.52 542.31 553.01 542.54 574.49 C 521.06 574.96 499.56 574.49 478.07 574.73 C 477.92 553.17 478.03 531.60 478.01 510.04 Z" />
<path fill="#ffffff" opacity="1.00" d=" M 608.13 510.03 C 650.85 509.96 693.56 510.01 736.28 510.00 C 736.28 531.67 736.29 553.33 736.28 575.00 C 693.56 574.98 650.84 575.05 608.13 574.96 C 608.18 553.32 608.17 531.67 608.13 510.03 Z" />
<path fill="#ffffff" opacity="1.00" d=" M 478.00 639.00 C 499.48 639.00 520.96 639.00 542.44 639.00 C 542.43 660.44 542.47 681.89 542.42 703.33 C 520.95 703.35 499.47 703.35 478.00 703.33 C 478.00 681.88 478.00 660.44 478.00 639.00 Z" />
<path fill="#ffffff" opacity="1.00" d=" M 608.14 639.03 C 650.85 638.96 693.56 639.02 736.28 639.00 C 736.29 660.67 736.28 682.33 736.28 704.00 C 693.56 703.98 650.84 704.05 608.13 703.96 C 608.18 682.32 608.17 660.67 608.14 639.03 Z" />
</svg>
