<svg version="1.1" id="Layer_1" xmlns="http://www.w3.org/2000/svg" x="0px"
     y="0px"
     viewBox="0 0 52 52" style="enable-background:new 0 0 52 52;" xml:space="preserve">
<style type="text/css">
	.st0{fill:#231F20;}
</style>
    <path class="st0" d="M48.1,5.5v18.2c0,0.7-0.6,1.3-1.3,1.3H28.5c-0.8,0-1.4-0.6-1.4-1.4v-3.1c0-0.8,0.7-1.5,1.5-1.5h7
	c0.9,0,1.6-0.4,1.3-1.2c-0.3-0.5-0.7-1-1.2-1.4c-2.8-2.8-6.6-4.4-10.6-4.4c-5.2,0-10.1,2.7-12.9,7.6c-0.7,1.2-1.3,2.5-1.6,3.8
	C9,30,11.7,36.6,17.4,40.1c1.2,0.7,2.5,1.3,3.8,1.6c4.9,1.2,9.8,0,13.4-3c0.6-0.5,1.5-0.4,2,0.1l2.1,2.1c0.6,0.6,0.6,1.6-0.1,2.2
	c-3.8,3.2-8.6,5-13.7,5c-5.8,0-11.2-2.3-15.2-6.5c-3.8-3.9-5.9-9.3-5.8-14.7c0.1-7,3.6-13.5,9.7-17.5c2.1-1.4,4.5-2.4,7-2.9
	c7.2-1.4,14.2,0.7,19.2,5.7c0.4,0.3,0.7,0.6,1,1c0.7,0.6,1.2,0.2,1.2-0.7v-7C42,4.7,42.7,4,43.5,4h3C47.3,4,48,4.7,48.1,5.5z"/>
</svg>
