<svg width="800" height="800" viewBox="0 0 800 800" fill="none" xmlns="http://www.w3.org/2000/svg">
<rect width="800" height="800" fill="none"/>
<rect y="250" width="800" height="300" rx="150" fill="#2DC653"/>
<circle cx="650" cy="400" r="130" fill="#92E6A7"/>
<path d="M720.724 470.698L694.219 470.361L683.048 494.404L659.325 482.561L638.825 499.377L622.56 478.442L596.797 484.696L591.263 458.759L565.324 453.235L571.568 427.468L550.627 411.211L567.436 390.706L555.585 366.987L579.623 355.807L579.277 329.302L605.782 329.639L616.953 305.596L640.676 317.439L661.175 300.623L677.44 321.558L703.204 315.305L708.738 341.241L734.677 346.765L728.433 372.532L749.374 388.789L732.564 409.294L744.416 433.014L720.378 444.193L720.724 470.698Z" fill="#E8BA44"/>
<path d="M720.724 470.698L720.378 444.193L744.416 433.014L732.565 409.294L749.374 388.789L728.433 372.532L734.677 346.765L708.738 341.241L591.263 458.759L596.797 484.696L622.56 478.442L638.826 499.377L659.325 482.561L683.048 494.404L694.219 470.361L720.724 470.698Z" fill="#E49524"/>
<path d="M609.191 440.822C631.737 463.361 668.286 463.354 690.825 440.807C713.363 418.261 713.356 381.712 690.81 359.173C668.263 336.635 631.714 336.642 609.176 359.188C586.637 381.735 586.644 418.284 609.191 440.822Z" fill="#F1D849"/>
<path d="M690.826 440.811C668.288 463.358 631.738 463.365 609.19 440.826L690.812 359.175C713.359 381.714 713.365 418.264 690.826 440.811Z" fill="#E8BA44"/>
</svg>
